PathFileType	4	(X/Y/Z)	C:/Users/opensim2020/Desktop/walking_exp_matlab/subject03_walking15_straight_02.trc	
DataRate	CameraRate	NumFrames	NumMarkers	Units	OrigDataRate	OrigDataStartFrame	OrigNumFrames	
100.00	100.00	4	47	mm	100.00	1196	149	
Frame#	Time	LFHD			RFHD			LBHD			RBHD			C7			T10			CLAV			STRN			RBAK			LSHO			LUPA			LELB			LFRM			LWRA			LWRB			LFIN			RSHO			RUPA			RELB			RFRM			RWRA			RWRB			RFIN			LASI			RASI			LPSI			RPSI			LTHI			LKNE			LTIB			LANK			LHEE			LTOE			RTHI			RKNE			RTIB			RANK			RHEE			RTOE			*39			*40			*41			*42			*43			*44			*45			*46			
		X1	Y1	Z1	X2	Y2	Z2	X3	Y3	Z3	X4	Y4	Z4	X5	Y5	Z5	X6	Y6	Z6	X7	Y7	Z7	X8	Y8	Z8	X9	Y9	Z9	X10	Y10	Z10	X11	Y11	Z11	X12	Y12	Z12	X13	Y13	Z13	X14	Y14	Z14	X15	Y15	Z15	X16	Y16	Z16	X17	Y17	Z17	X18	Y18	Z18	X19	Y19	Z19	X20	Y20	Z20	X21	Y21	Z21	X22	Y22	Z22	X23	Y23	Z23	X24	Y24	Z24	X25	Y25	Z25	X26	Y26	Z26	X27	Y27	Z27	X28	Y28	Z28	X29	Y29	Z29	X30	Y30	Z30	X31	Y31	Z31	X32	Y32	Z32	X33	Y33	Z33	X34	Y34	Z34	X35	Y35	Z35	X36	Y36	Z36	X37	Y37	Z37	X38	Y38	Z38	X39	Y39	Z39	X40	Y40	Z40	X41	Y41	Z41	X42	Y42	Z42	X43	Y43	Z43	X44	Y44	Z44	X45	Y45	Z45	X46	Y46	Z46	X47	Y47	Z47	

112	1.110	-910.37708	-528.31458	1605.20593	-1042.03772	-534.71069	1620.16028	-924.64410	-398.09317	1571.86316	-1054.03113	-409.55338	1585.85303	-992.88556	-369.07147	1407.02405	-992.80170	-355.21201	1090.57886	-991.29242	-493.57404	1337.36304	-987.17212	-549.06415	1176.45020	-1090.41003	-329.00983	1226.38184	-835.72321	-438.87747	1370.43848	-767.71985	-433.49142	1171.39343	-759.12274	-449.18439	1048.02722	-763.70447	-486.02298	922.55304	-796.78009	-520.16827	810.20911	-749.24188	-491.51102	808.59174	-756.49493	-524.35345	733.89600	-1151.47656	-445.69696	1362.20264	-1237.05237	-474.06854	1146.97009	-1253.59802	-509.45792	1041.01770	-1252.49023	-564.73395	916.06561	-1213.23755	-620.40057	835.66742	-1257.54602	-594.09833	820.39838	-1247.30579	-639.67786	763.04559	-880.27704	-533.36493	937.12445	-1116.91833	-523.26422	937.31464	-923.20355	-368.69968	947.08929	-1071.51050	-363.85873	961.93927	-825.33832	-568.72198	645.93994	-854.15259	-636.31860	481.81903	-861.91980	-601.94238	283.74750	-906.61615	-606.51575	74.96574	-952.44885	-573.52795	38.14582	-910.18073	-754.34668	48.46413	-1150.26123	-445.56827	640.94525	-1110.62915	-435.53641	462.26642	-1111.39185	-354.63483	284.66159	-1061.27917	-280.55194	81.13871	-1011.59247	-230.49857	56.44915	-1047.31140	-415.75351	31.38932																								 
113	1.120	-909.44983	-541.54944	1603.14709	-1040.96631	-548.04254	1618.96167	-923.87073	-411.41086	1569.79370	-1053.35852	-423.00214	1584.34998	-992.13696	-382.68613	1405.49365	-991.42340	-368.94629	1088.95349	-991.21594	-507.17941	1335.71753	-987.54749	-562.61914	1174.79443	-1089.89258	-342.27780	1225.04163	-835.23163	-453.39285	1368.60242	-767.80408	-447.95206	1169.33679	-759.36267	-461.70773	1045.87646	-762.79175	-492.98288	918.62756	-794.06818	-520.48413	803.81030	-746.10541	-492.44366	804.55792	-752.42078	-520.68542	727.93536	-1151.23901	-458.89905	1360.93433	-1237.22656	-488.87997	1146.21619	-1253.96045	-525.76715	1040.88403	-1252.26172	-584.47076	917.66492	-1212.61658	-642.81024	839.51416	-1256.27002	-616.70294	822.89008	-1246.01086	-664.06030	767.25653	-880.67871	-549.01898	935.42108	-1117.48608	-535.34930	935.60309	-920.80273	-383.68765	945.45959	-1069.10168	-376.63831	960.03455	-824.75934	-581.57623	643.39624	-855.28088	-649.79657	479.19705	-862.70648	-627.06378	281.00250	-906.52435	-646.33533	72.33954	-952.35358	-616.10223	33.81086	-908.69171	-795.87231	54.44289	-1150.04016	-454.42755	640.09253	-1110.61633	-442.29767	461.34671	-1111.15222	-358.43210	285.11542	-1061.20410	-281.11008	82.82237	-1011.06201	-231.04324	58.53493	-1047.19543	-415.77612	31.31939	-963.65936	-464.90106	1673.22852																					 
114	1.130	-908.31403	-554.18622	1601.73364	-1039.87024	-561.26355	1617.60120	-923.23065	-424.52591	1567.58118	-1052.55908	-436.32532	1582.64917	-991.44592	-396.23669	1403.63269	-990.01691	-382.82999	1087.16467	-991.11237	-520.85248	1333.98376	-987.93738	-576.41162	1173.05725	-1089.29956	-355.56451	1223.50378	-834.74219	-468.15665	1366.65173	-767.87860	-462.40311	1167.22351	-759.80164	-475.34915	1043.55688	-761.94153	-500.28867	915.04333	-791.32092	-521.33081	798.20325	-742.76685	-494.21198	801.30817	-749.02850	-517.23932	722.59418	-1150.71045	-472.05002	1359.39111	-1237.23401	-503.35947	1145.31934	-1254.16223	-541.67395	1040.61292	-1251.81299	-603.70026	919.21033	-1211.69141	-664.52490	843.35980	-1255.20227	-638.77399	825.63361	-1244.53894	-687.94586	771.54956	-881.14990	-564.67682	933.39905	-1117.80164	-547.40393	933.69928	-918.52393	-398.87421	943.71460	-1066.73242	-389.67081	958.09155	-823.66864	-593.92719	640.03711	-856.89844	-663.31854	476.71396	-863.61383	-651.41083	278.95557	-905.20166	-683.51294	71.30824	-950.95203	-656.53485	31.18237	-907.55115	-834.99158	61.62628	-1149.78113	-463.81570	639.12805	-1110.66211	-449.61063	460.36810	-1111.03357	-362.66040	285.56107	-1060.73560	-282.07669	84.31965	-1010.74640	-231.60706	60.92713	-1047.24402	-415.85474	31.36114																								 
115	1.140	-907.04028	-567.57977	1599.67908	-1038.68237	-574.46442	1616.16638	-922.50757	-437.69293	1565.29089	-1051.81213	-449.68784	1580.89270	-990.58051	-409.69992	1401.59619	-988.49194	-396.97360	1085.06079	-990.96484	-534.57758	1332.09424	-988.29279	-590.28363	1171.26990	-1088.54163	-368.92804	1221.71655	-834.26727	-483.13077	1364.58093	-767.76306	-477.22278	1164.99487	-760.18207	-488.52948	1041.43945	-760.99744	-508.18478	911.89325	-788.92010	-522.27118	793.36560	-739.32898	-497.15189	798.80310	-745.86279	-514.18250	718.11969	-1150.15198	-485.26932	1357.43433	-1237.15552	-517.62201	1144.18896	-1254.20471	-557.09509	1040.15222	-1251.26013	-622.45093	920.68665	-1210.53638	-685.61511	847.15942	-1253.78735	-660.26624	828.11102	-1242.91467	-711.20160	775.87512	-881.60925	-580.26007	931.12189	-1118.37170	-559.81799	931.68921	-916.13281	-414.13495	941.92737	-1064.44507	-402.86951	956.16949	-822.75391	-605.28589	636.08478	-859.32782	-675.72888	473.78860	-864.39893	-674.72296	277.52341	-903.60840	-719.08466	71.34866	-949.02472	-694.66882	29.50570	-906.11462	-871.47119	69.62882	-1149.62109	-473.69086	638.04865	-1110.64612	-457.24655	459.33832	-1111.03369	-367.41824	285.97971	-1060.74109	-283.15045	86.14073	-1010.74420	-232.26675	63.63458	-1047.33374	-415.96875	31.30186	-960.90686	-490.92160	1669.43323																					 
